<svg width="23" height="21" viewBox="0 0 23 21" fill="none" xmlns="http://www.w3.org/2000/svg">
<path d="M10.191 1.03276C10.4986 0.129056 11.7768 0.129056 12.0844 1.03276L14.0526 6.81519C14.1905 7.22046 14.5712 7.49297 14.9993 7.49297H21.2661C22.246 7.49297 22.6412 8.75622 21.836 9.31472L16.8472 12.7746C16.4803 13.029 16.3266 13.4958 16.4705 13.9185L18.3947 19.5716C18.7055 20.4848 17.6708 21.2653 16.8781 20.7155L11.7076 17.1296C11.3648 16.8919 10.9106 16.8919 10.5678 17.1296L5.3973 20.7155C4.6046 21.2653 3.5699 20.4848 3.8808 19.5716L5.805 13.9185C5.9488 13.4958 5.7951 13.029 5.4282 12.7746L0.439402 9.31472C-0.365798 8.75622 0.0294025 7.49297 1.0093 7.49297H7.2761C7.7042 7.49297 8.0849 7.22046 8.2228 6.81519L10.191 1.03276Z" fill="#FFA858"/>
</svg>
