<svg width="15" height="14" viewBox="0 0 15 14" fill="none" xmlns="http://www.w3.org/2000/svg">
<path d="M6.20349 0.781287C6.51109 -0.122413 7.78919 -0.122403 8.09679 0.781287L9.08029 3.67075C9.21819 4.07602 9.59889 4.34853 10.027 4.34853H13.1072C14.0871 4.34853 14.4823 5.61178 13.6771 6.17025L11.2663 7.84218C10.8994 8.09662 10.7457 8.56342 10.8896 8.98612L11.829 11.7462C12.1399 12.6594 11.1051 13.4399 10.3125 12.8901L7.71999 11.0922C7.37729 10.8544 6.92299 10.8544 6.58019 11.0922L3.98769 12.8901C3.19509 13.4399 2.16039 12.6594 2.47119 11.7462L3.41069 8.98612C3.55449 8.56342 3.40079 8.09662 3.03389 7.84218L0.623188 6.17025C-0.182112 5.61178 0.213088 4.34853 1.19309 4.34853H4.27329C4.70139 4.34853 5.08199 4.07602 5.21989 3.67075L6.20349 0.781287Z" fill="#FFA858"/>
</svg>
